<?xml version="1.0" encoding="utf-8"?>
<!-- Generator: Adobe Illustrator 27.5.0, SVG Export Plug-In . SVG Version: 6.00 Build 0)  -->
<svg version="1.1" id="Layer_1" xmlns="http://www.w3.org/2000/svg" xmlns:xlink="http://www.w3.org/1999/xlink" x="0px" y="0px"
	 viewBox="0 0 900 900" style="enable-background:new 0 0 900 900;" xml:space="preserve">
<g>
	<g>
		<path style="fill:none;stroke:#E25959;stroke-width:2.7668;stroke-miterlimit:10;" d="M0,525.188l26.364,72.706
			c0.969,2.672,2.294,2.594,2.944-0.173l25.861-110.083c0.65-2.767,1.732-2.772,2.405-0.01l11.998,49.25
			c0.673,2.761,1.759,2.758,2.415-0.008l23.224-97.985c0.655-2.766,1.904-2.815,2.773-0.109l21.582,67.137
			c0.87,2.706,2.173,2.671,2.896-0.078l0.966-3.673c0.723-2.749,1.974-2.768,2.78-0.042l13.079,44.217
			c0.806,2.726,1.916,2.674,2.465-0.115l14.445-73.257c0.55-2.789,2.304-3.145,3.899-0.792l6.99,10.313
			c1.595,2.353,3.305,1.988,3.799-0.811l22.569-127.624c0.495-2.799,1.45-2.829,2.123-0.068l4.185,17.184
			c0.672,2.762,2.641,3.178,4.374,0.925l3.818-4.964c1.733-2.253,3.616-1.818,4.185,0.967l23.657,115.907
			c0.568,2.785,1.948,2.925,3.065,0.312l17.546-41.05c1.117-2.614,2.9-2.595,3.961,0.042l13.615,33.825
			c1.061,2.637,2.546,2.552,3.299-0.189l9.45-34.387c0.753-2.741,2.451-2.924,3.773-0.408l22.243,42.343
			c1.322,2.516,2.897,2.303,3.5-0.475l21.985-101.271c0.603-2.778,2.443-3.154,4.089-0.837l7.211,10.153
			c1.646,2.317,4.293,2.285,5.883-0.071l5.885-8.724c1.59-2.356,4.036-2.261,5.437,0.212l8.833,15.596
			c1.401,2.473,3.076,2.232,3.723-0.535l22.856-97.746c0.647-2.768,1.79-2.789,2.541-0.048l29.424,107.526
			c0.75,2.741,2.98,3.313,4.956,1.269l1.15-1.19c1.975-2.044,4.199-1.471,4.941,1.273l5.115,18.907
			c0.742,2.744,1.728,2.694,2.19-0.11l21.846-132.481c0.462-2.805,2.609-3.589,4.77-1.743l4.431,3.785
			c2.161,1.846,4.672,1.152,5.578-1.542l4.232-12.576c0.907-2.694,2.913-2.946,4.459-0.561l5.063,7.812
			c1.546,2.385,3.337,2.072,3.981-0.697l31.64-136.017c0.644-2.768,2.698-3.279,4.564-1.135l4.998,5.743
			c1.866,2.144,3.998,1.653,4.738-1.091l10.617-39.375c0.74-2.744,2.351-2.893,3.58-0.33l7.528,15.702
			c1.229,2.563,3.095,2.499,4.147-0.141l2.079-5.219c1.052-2.64,2.687-2.608,3.633,0.072l35.16,99.583
			c0.946,2.68,2.528,2.692,3.514,0.026l32.277-87.221c0.987-2.666,2.988-2.851,4.448-0.413l4.654,7.773
			c1.46,2.439,4.651,3.447,7.092,2.24s6.11-0.579,8.155,1.395l1.35,1.303c2.045,1.974,5.41,1.994,7.479,0.045l4.913-4.63
			c2.068-1.949,5.901-2.633,8.515-1.519l2.513,1.071c2.615,1.114,5.201-0.257,5.746-3.046l12.205-62.427
			c0.545-2.789,2.912-3.761,5.26-2.158l9.41,6.424c2.347,1.603,4.965,0.695,5.816-2.017l15.205-48.436
			c0.851-2.712,2.281-2.723,3.176-0.026l6.71,20.214c0.896,2.698,2.139,2.636,2.764-0.137c0,0,12.23-54.298,14.446-56.673"/>
	</g>
	<g>
		<g>
			
				<rect x="426.65" y="515.016" style="fill:#F7F2EC;stroke:#640917;stroke-width:2.5;stroke-miterlimit:10;" width="213.8" height="95.38"/>
		</g>
		<g>
			
				<rect x="322.999" y="610.256" style="fill:#F7F2EC;stroke:#640917;stroke-width:2.5;stroke-miterlimit:10;" width="211.611" height="95.38"/>
		</g>
		<g>
			
				<rect x="109.332" y="801.026" style="fill:#F7F2EC;stroke:#640917;stroke-width:2.5;stroke-miterlimit:10;" width="213.801" height="98.974"/>
		</g>
		<g>
			
				<rect x="214.59" y="705.656" style="fill:#F7F2EC;stroke:#640917;stroke-width:2.5;stroke-miterlimit:10;" width="213.8" height="95.37"/>
		</g>
		<path style="opacity:0.45;fill:#640917;" d="M468.14,699.416l-35.01-9.6h-2.18l0.2-0.79c0.32-0.25,0.57-0.61,0.67-1.03
			l19.16-78.49h-37.65l-20.53,78.22c-0.2,0.76-0.01,1.521,0.43,2.09h-0.13c-0.37,0-0.67,0.3-0.67,0.67v14.4h81.13
			C472.87,702.276,470.84,700.156,468.14,699.416z M286.99,800.276v-16.06l17.33-79.31h38.66l-17.33,79.31h2.04l35.01,9.6
			c1.68,0.46,3.1,1.45,4.1,2.77c0.81,1.06,1.35,2.32,1.52,3.69H286.99z"/>
	</g>
	<g>
		
			<rect x="533.75" y="419.646" style="fill:#F7F2EC;stroke:#640917;stroke-width:2.5;stroke-miterlimit:10;" width="213.8" height="95.37"/>
	</g>
	<g>
		
			<rect x="642.804" y="324.097" style="fill:#F7F2EC;stroke:#640917;stroke-width:2.5;stroke-miterlimit:10;" width="213.801" height="95.374"/>
	</g>
	<g>
		
			<rect x="747.17" y="228.723" style="fill:#F7F2EC;stroke:#640917;stroke-width:2.5;stroke-miterlimit:10;" width="152.83" height="95.374"/>
	</g>
	<g>
		<g id="XMLID_17106_">
			<g id="XMLID_17264_">
				<path id="XMLID_17265_" style="fill:#FFEDD9;stroke:#640917;stroke-width:2.5;stroke-linecap:round;stroke-miterlimit:10;" d="
					M453.988,480.485c-0.35-0.039-0.701-0.094-1.053-0.165l-85.28-23.657c-6.355-1.277-9.149-5.266-12.414-10.863l-39.703-50.707
					c-3.402-5.829,13.449-25.442,16.85-19.615l33.716,71.098l57.737,6.162l12.513-0.945l21.391,4.564
					c6.617,1.328,10.904,7.769,9.577,14.386C466.064,477.008,460.222,481.186,453.988,480.485z"/>
			</g>
			<g id="XMLID_17262_">
				<path id="XMLID_17263_" style="fill:#FFFFFF;stroke:#640917;stroke-width:2.5;stroke-linecap:round;stroke-miterlimit:10;" d="
					M325.504,363.685l43.723,74.907l69.361,13.921c0,0-4.951,23.934-5.304,23.863l-69.634-13.975
					c-6.355-1.277-11.872-5.218-15.138-10.815l-39.803-68.192"/>
			</g>
			<g id="XMLID_17260_">
				<path id="XMLID_17261_" style="fill:#FFEDD9;stroke:#640917;stroke-width:2.5;stroke-linecap:round;stroke-miterlimit:10;" d="
					M464.314,473.887l7.67,1.778c2.21,0.42,3.661,2.553,3.242,4.762c-0.4,2.107-2.356,3.524-4.453,3.288
					c-0.103-0.012-0.206-0.027-0.31-0.046l-19.096-3.628"/>
			</g>
			<g id="XMLID_17258_">
				<path id="XMLID_17259_" style="fill:#FFEDD9;stroke:#640917;stroke-width:2.5;stroke-linecap:round;stroke-miterlimit:10;" d="
					M464.642,466.203l10.252,2.015c2.136,0.421,3.527,2.494,3.106,4.63c-0.401,2.036-2.303,3.395-4.331,3.153
					c-0.1-0.012-0.2-0.027-0.299-0.047l-14.364-3.138"/>
			</g>
			<g id="XMLID_17256_">
				<path id="XMLID_17257_" style="fill:#FFEDD9;stroke:#640917;stroke-width:2.5;stroke-linecap:round;stroke-miterlimit:10;" d="
					M456.066,456.021l20.266,4.448c2.136,0.421,3.527,2.494,3.106,4.63c-0.401,2.036-2.303,3.395-4.331,3.153
					c-0.1-0.012-0.2-0.027-0.299-0.047l-14.213-2.801"/>
			</g>
			<g id="XMLID_17254_">
				<path id="XMLID_17255_" style="fill:#FFEDD9;stroke:#640917;stroke-width:2.5;stroke-linecap:round;stroke-miterlimit:10;" d="
					M443.503,456.295l9.985,1.967c2.136,0.421,3.527,2.494,3.106,4.63c-0.401,2.036-2.303,3.395-4.331,3.153
					c-0.1-0.012-0.2-0.027-0.299-0.047l-10.166-2.003"/>
			</g>
			<path id="XMLID_17253_" style="fill:#FFFFFF;stroke:#640917;stroke-width:2.5;stroke-linecap:round;stroke-miterlimit:10;" d="
				M430.626,448.048l4.909,1.029c1.861,0.39,3.061,2.206,2.689,4.071l-4.487,22.517c-0.372,1.867-2.179,3.085-4.049,2.729
				l-4.8-0.913c-1.885-0.359-3.121-2.181-2.757-4.065l4.378-22.632C426.878,448.882,428.731,447.651,430.626,448.048z"/>
			<g id="XMLID_17251_">
				<path id="XMLID_17252_" style="fill:#FFEDD9;stroke:#640917;stroke-width:2.5;stroke-linecap:round;stroke-miterlimit:10;" d="
					M171.495,466.762l-1.427,11.892c-0.211,2.167-2.139,3.753-4.305,3.543c-2.066-0.201-3.603-1.962-3.56-4.003
					c0.002-0.1,0.008-0.201,0.018-0.303l1.003-10.313"/>
			</g>
			<path id="XMLID_17250_" style="fill:none;stroke:#640917;stroke-width:2.5;stroke-linecap:round;stroke-miterlimit:10;" d="
				M127.025,478.838l4.991-8.405c2.368-3.987,7.51-5.315,11.512-2.974l20.426,11.949c3.93,2.299,5.326,7.301,3.155,11.303
				l-4.757,8.77"/>
			<path id="XMLID_17249_" style="fill:#FFFFFF;stroke:#640917;stroke-width:2.5;stroke-linecap:round;stroke-miterlimit:10;" d="
				M255.833,364.167l-21.069,129.366l85.621,13.97l20.848-127.779c2.017-12.359-6.368-24.014-18.728-26.03l-40.326-8.482
				C269.671,343.17,257.875,351.657,255.833,364.167z"/>
			
				<polygon id="XMLID_17248_" style="fill:#E25959;stroke:#640917;stroke-width:2.5;stroke-linecap:round;stroke-miterlimit:10;" points="
				318.166,474.473 307.465,486.202 296.765,474.473 311.337,369.839 320.591,369.839 			"/>
			<path id="XMLID_17247_" style="fill:#FFEDD9;stroke:#640917;stroke-width:2.5;stroke-linecap:round;stroke-miterlimit:10;" d="
				M292.249,329.863l-2.288,14.026c-0.07,0.429,0.573-2.482,0.54-2.056c-0.667,8.136,10.966,20.495,19.167,21.833l4.749,0.245
				c3.914,0.639,7.605-2.017,8.244-5.931l2.836-17.382L292.249,329.863z"/>
			<path id="XMLID_17245_" style="fill:#FCD3B6;" d="M293,322l-3.04,21.889c-0.07,0.429-0.121,0.852-0.153,1.277
				c4.643,3.582,10.223,6.089,16.423,7.1l5.887,0.961c3.895,0.636,7.731,0.509,11.363-0.274c0.046-0.002,0.085-0.014,0.132-0.024
				l1.781-10.917l-0.122-0.038L293,322z"/>
			<path id="XMLID_17244_" style="fill:none;stroke:#640917;stroke-width:2.5;stroke-linecap:round;stroke-miterlimit:10;" d="
				M293,322.333l-2.977,21.566c-0.07,0.429,0.51-2.825,0.477-2.399c-0.667,8.136,4.39,19.225,12.591,20.563l13.739,2.242
				c2.616,0.427,5.082-1.348,5.509-3.964l3.22-19.733L293,322.333z"/>
			<path id="XMLID_17243_" style="fill:#FFEDD9;" d="M292.154,277.693l-4.183,25.216l0,0c-3.325,19.988,10.186,38.886,30.174,42.207
				l5.884,0.978c16.728,2.779,32.541-8.528,35.321-25.256l5.401-32.504l0.748-4.502c1.703-10.252-5.226-19.943-15.478-21.647
				l-35.233-5.857c-10.253-1.704-19.946,5.226-21.649,15.479l-1.485,8.937"/>
			
				<rect id="XMLID_17156_" x="349.154" y="292.679" transform="matrix(-0.9865 -0.1639 0.1639 -0.9865 658.4968 650.6268)" style="fill:#FCD3B6;" width="13.871" height="10.938"/>
			<path id="XMLID_17155_" style="fill:#FCD3B6;" d="M322.964,298.188l8.648,1.437c2.937,0.488,5.713-1.497,6.201-4.434l0.909-5.473
				l-18.94-3.147l-0.966,5.815C318.359,295.134,320.216,297.731,322.964,298.188z"/>
			<path id="XMLID_17153_" style="fill:#FCD3B6;" d="M292.153,277.697l-4.181,25.218c-0.001,0.009-0.001,0.009-0.003,0.018
				c-3.319,19.975,10.197,38.866,30.172,42.185l5.884,0.978c0.384,0.064,0.778,0.12,1.164,0.175
				c-19.273-3.9-32.146-22.408-28.898-41.955c0.002-0.009,0.002-0.009,0.003-0.018l4.181-25.218l-0.497,3.046l1.485-8.938
				c1.699-10.224,11.347-17.155,21.577-15.492l-8.251-1.371c-10.251-1.703-19.946,5.229-21.649,15.48l-1.485,8.938L292.153,277.697z
				"/>
			<path id="XMLID_17152_" style="fill:none;stroke:#640917;stroke-width:2.5;stroke-linecap:round;stroke-miterlimit:10;" d="
				M292.188,277.491l-4.183,25.217l0,0c-3.325,19.988,10.186,38.886,30.174,42.207l5.884,0.978
				c16.728,2.779,32.541-8.528,35.321-25.256l5.401-32.504l0.748-4.502c1.703-10.252-5.226-19.943-15.478-21.648l-35.233-5.857
				c-10.253-1.704-19.946,5.226-21.649,15.479l-1.485,8.937"/>
			<path id="XMLID_17151_" style="fill:none;stroke:#2E2F73;stroke-width:1.7636;stroke-linecap:round;stroke-miterlimit:10;" d="
				M364.239,292.766"/>
			<path id="XMLID_17150_" style="fill:none;stroke:#640917;stroke-width:2.5;stroke-linecap:round;stroke-miterlimit:10;" d="
				M340.15,317.973c3.018,0.501,5.87-1.538,6.372-4.556l2.039-12.27"/>
			<path id="XMLID_17149_" style="fill:#FFF3E4;stroke:#640917;stroke-width:2.5;stroke-linecap:round;stroke-miterlimit:10;" d="
				M284.411,297.078"/>
			<path id="XMLID_17148_" style="fill:#640917;stroke:#640917;stroke-width:2.5;stroke-linecap:round;stroke-miterlimit:10;" d="
				M321.27,287.622l15.521,2.579c0.894,0.148,1.738-0.456,1.887-1.349l0.241-1.452c0.148-0.894-0.456-1.738-1.349-1.887
				l-15.521-2.579c-0.893-0.148-1.738,0.456-1.887,1.349l-0.241,1.452C319.772,286.629,320.376,287.473,321.27,287.622z"/>
			<g id="XMLID_17146_">
				<path id="XMLID_17147_" style="fill:#FFD671;stroke:#640917;stroke-width:2.5;stroke-miterlimit:10;" d="M289.571,266.018
					c2.914-17.538,19.494-29.401,37.032-26.487l0.122,0.02l56.879,9.451l-3.059,18.41c-1.689,10.167-11.301,17.04-21.468,15.351
					l-39.463-6.557c-5.7-0.947-11.289,2.209-13.421,7.58l-4.87,12.267c-1.631,4.108-7.519,3.885-8.835-0.334l-6.576-7.683
					l3.639-21.904C289.558,266.097,289.565,266.059,289.571,266.018z"/>
			</g>
			<g id="XMLID_17144_">
				<path id="XMLID_17145_" style="fill:#FFE7B0;" d="M297.181,289.195l-0.305,2.732l1.117,5.897
					c-1.575,3.948-3.238,1.155-4.5-2.908l-6.332-7.386l3.518-21.173c2.802-16.865,18.748-28.266,35.613-25.464l10.01,1.663
					c-16.856-2.801-32.801,8.601-35.604,25.466L297.181,289.195z"/>
			</g>
			<path id="XMLID_17143_" style="fill:#640917;stroke:#640917;stroke-width:2.5;stroke-linecap:round;stroke-miterlimit:10;" d="
				M351.632,292.666l10.447,1.736c0.894,0.148,1.738-0.456,1.887-1.349l0.241-1.452c0.148-0.894-0.456-1.738-1.349-1.887
				l-10.447-1.736c-0.893-0.148-1.738,0.456-1.887,1.349l-0.241,1.452C350.135,291.673,350.739,292.518,351.632,292.666z"/>
			<path id="XMLID_17142_" style="fill:#DAEAE9;stroke:#640917;stroke-width:2.5;stroke-linecap:round;stroke-miterlimit:10;" d="
				M250.043,584.602l-7.71-44.06c-7.128-11.082-11.007-25.935-8.165-43.35l0.597-3.659l85.659,13.976l0,0
				c-2.369,22.349-2.136,32.036-2.136,32.036l-27.122-0.742l-13.096,0.196l-8.221,44.493l-18.702,6.161"/>
			<g id="XMLID_17140_">
				<path id="XMLID_17141_" style="fill:#C68671;stroke:#640917;stroke-width:2.5;stroke-miterlimit:10;" d="M319.47,512.773
					l77.91,15.386c11.239,2.219,18.345,13.378,15.603,24.501l-32.964,133.712l-34.7-4.862c-1.446-0.203-2.391-1.622-2.02-3.034
					l31.352-119.457l-99.229-20.569"/>
			</g>
			<path id="XMLID_17139_" style="fill:#FCD3B6;stroke:#640917;stroke-width:2.5;stroke-linecap:round;stroke-miterlimit:10;" d="
				M297.131,299.192c0.83-4.994-2.546-9.715-7.54-10.544c-4.994-0.83-9.715,2.546-10.544,7.54c-0.83,4.994,2.546,9.715,7.54,10.544
				c1.629,0.271,3.229,0.094,4.674-0.44"/>
			<path id="XMLID_17138_" style="fill:#FFF3E4;stroke:#640917;stroke-width:2.5;stroke-linecap:round;stroke-miterlimit:10;" d="
				M288.701,294.011c-2.032-0.338-3.952,1.036-4.29,3.068"/>
			<g id="XMLID_17136_">
				<path id="XMLID_17137_" style="fill:#FFEDD9;stroke:#640917;stroke-width:2.5;stroke-linecap:round;stroke-miterlimit:10;" d="
					M146.662,462.075c0.135-0.326,0.284-0.648,0.45-0.967l10.275-19.963c2.986-5.754,41.048-63.588,47.33-65.176l62.334-23.287
					c6.543-1.655-67.432,45.685-73.973,47.34l-11.639,45.778l-12.633,26.564c-3.109,5.991-10.485,8.327-16.475,5.219
					C146.659,474.641,144.263,467.871,146.662,462.075z"/>
			</g>
			<g id="XMLID_17134_">
				<path id="XMLID_17135_" style="fill:#FFFFFF;stroke:#640917;stroke-width:2.5;stroke-linecap:round;stroke-miterlimit:10;" d="
					M271.779,351.487l-68.142,17.238c-6.282,1.588-11.597,5.798-14.583,11.551l-32.71,63.042
					c-0.165,0.319,21.462,11.704,21.462,11.704l32.582-62.794l59.021-14.931"/>
			</g>
			<g id="XMLID_17132_">
				<path id="XMLID_17133_" style="fill:#FFEDD9;stroke:#640917;stroke-width:2.5;stroke-linecap:round;stroke-miterlimit:10;" d="
					M153.407,467.993l-3.833,6.878c-1.016,2.007-3.467,2.811-5.474,1.796c-1.913-0.968-2.734-3.24-1.927-5.189
					c0.04-0.096,0.083-0.191,0.13-0.285l8.774-17.345"/>
			</g>
			<g id="XMLID_17130_">
				<path id="XMLID_17131_" style="fill:#FFEDD9;stroke:#640917;stroke-width:2.5;stroke-linecap:round;stroke-miterlimit:10;" d="
					M160.7,470.436l-4.775,9.293c-0.996,1.936-3.373,2.698-5.309,1.703c-1.846-0.949-2.624-3.153-1.831-5.034
					c0.039-0.093,0.081-0.184,0.128-0.275l4.177-7.677"/>
			</g>
			<g id="XMLID_17128_">
				<path id="XMLID_17129_" style="fill:#FFEDD9;stroke:#640917;stroke-width:2.5;stroke-linecap:round;stroke-miterlimit:10;" d="
					M167.628,474.207l-4.655,9.05c-0.996,1.936-3.373,2.698-5.309,1.703c-1.846-0.949-2.624-3.153-1.831-5.034
					c0.039-0.093,0.081-0.184,0.128-0.275l4.739-9.214"/>
			</g>
			<path id="XMLID_17127_" style="fill:#FFFFFF;stroke:#640917;stroke-width:2.5;stroke-linecap:round;stroke-miterlimit:10;" d="
				M184.3,448.608l-2.348,4.432c-0.89,1.68-2.968,2.33-4.657,1.457l-20.394-10.546c-1.691-0.874-2.361-2.948-1.501-4.646
				l2.206-4.359c0.867-1.712,2.96-2.395,4.669-1.523l20.535,10.474C184.536,444.775,185.206,446.897,184.3,448.608z"/>
			<path id="XMLID_17126_" style="fill:#FFFFFF;stroke:#640917;stroke-width:2.5;stroke-linecap:round;stroke-miterlimit:10;" d="
				M287.024,345.645l0.916-5.615c0.202-1.238,1.368-1.995,2.605-1.691l0,0l22.826,20.803l-3.164,19.391
				c-0.072,0.44-0.64,0.531-0.901,0.144L287.024,345.645z"/>
			<path id="XMLID_17125_" style="fill:#E25959;stroke:#640917;stroke-width:2.5;stroke-linecap:round;stroke-miterlimit:10;" d="
				M318.138,371.98l-3.612-0.589c-1.695-0.277-2.846-1.875-2.569-3.571l0.915-5.606c0.277-1.695,1.875-2.846,3.571-2.569
				l3.613,0.589c1.695,0.277,2.846,1.875,2.569,3.571l-0.915,5.606C321.433,371.107,319.834,372.257,318.138,371.98z"/>
			<path id="XMLID_17124_" style="fill:#FFFFFF;stroke:#640917;stroke-width:2.5;stroke-linecap:round;stroke-miterlimit:10;" d="
				M321.35,378.743l6.763-17.194l0.105-10.864c0.002-0.525-0.378-0.974-0.897-1.058l-2.822-0.46l-0.915,3.536L321.35,378.743"/>
			<path id="XMLID_17123_" style="fill:#DAEAE9;stroke:#640917;stroke-width:2.5;stroke-linecap:round;stroke-miterlimit:10;" d="
				M276.615,531.387l20.915,93.597c3.757,17.183,3.757,34.975,0,52.159l-21.387,97.818H236l22.872-97.818
				c3.757-17.183,3.757-34.975,0-52.159l-22.805-97.818"/>
			<path id="XMLID_17122_" style="fill:#FFFFFF;stroke:#640917;stroke-width:2.5;stroke-linecap:round;stroke-miterlimit:10;" d="
				M334.831,300.16c-0.415,2.497-2.775,4.185-5.272,3.77c-2.497-0.415-4.185-2.775-3.77-5.272c0.415-2.497,2.775-4.185,5.272-3.77
				C333.558,295.302,335.246,297.663,334.831,300.16z"/>
			<path id="XMLID_17121_" style="fill:#FFFFFF;stroke:#640917;stroke-width:2.5;stroke-linecap:round;stroke-miterlimit:10;" d="
				M360.935,304.497c-0.415,2.497-2.775,4.185-5.272,3.77c-2.497-0.415-4.185-2.775-3.77-5.272c0.415-2.497,2.775-4.185,5.272-3.77
				C359.662,299.639,361.349,302,360.935,304.497z"/>
			<path id="XMLID_17120_" style="fill:#640917;stroke:#640917;stroke-width:2.5;stroke-miterlimit:10;" d="M334.035,298.455
				c-0.17,1.022-1.135,1.712-2.157,1.542c-1.022-0.17-1.712-1.135-1.542-2.157c0.17-1.022,1.135-1.712,2.157-1.542
				C333.514,296.468,334.205,297.434,334.035,298.455z"/>
			<path id="XMLID_17119_" style="fill:#640917;stroke:#640917;stroke-width:2.5;stroke-miterlimit:10;" d="M359.814,302.206
				c-0.17,1.022-1.135,1.712-2.157,1.542c-1.022-0.17-1.712-1.135-1.542-2.157c0.17-1.021,1.135-1.712,2.157-1.542
				C359.293,300.219,359.984,301.184,359.814,302.206z"/>
			<path id="XMLID_17118_" style="fill:#B57B64;stroke:#640917;stroke-width:2.5;stroke-linecap:round;stroke-miterlimit:10;" d="
				M144.375,609.571l-103.91-60.984c-7.039-4.131-9.396-13.186-5.265-20.224l36.864-62.812c4.131-7.039,13.186-9.396,20.224-5.265
				l103.91,60.984c7.039,4.131,9.396,13.185,5.265,20.224l-36.864,62.812C160.468,611.345,151.413,613.702,144.375,609.571z"/>
			<line style="opacity:0.25;fill:#640917;" x1="63.89" y1="479.478" x2="52.271" y2="499.276"/>
			<polyline id="XMLID_17117_" style="opacity:0.25;fill:#640917;" points="181.669,575.22 193.288,555.422 199.362,545.074 			"/>
			
				<line id="XMLID_17116_" style="fill:#E25959;stroke:#640917;stroke-width:2.5;stroke-linecap:round;stroke-miterlimit:10;" x1="58.344" y1="488.928" x2="69.963" y2="469.131"/>
			<path id="XMLID_17115_" style="fill:#FFD671;stroke:#640917;stroke-width:2.5;stroke-miterlimit:10;" d="M367.149,259.13
				l17.632,2.929l-0.657,3.952c-1.857,11.175-12.421,18.729-23.596,16.872l0,0"/>
			<path id="XMLID_17114_" style="fill:#FFFFFF;stroke:#640917;stroke-width:2.5;stroke-linecap:round;stroke-miterlimit:10;" d="
				M337.087,336.588L337.087,336.588c-4.832-0.803-8.099-5.371-7.296-10.204l0,0l17.499,2.908l0,0
				C346.487,334.124,341.919,337.391,337.087,336.588z"/>
			<path id="XMLID_17113_" style="fill:#E25959;stroke:#640917;stroke-width:2.5;stroke-linecap:round;stroke-miterlimit:10;" d="
				M294.411,372.784"/>
			<path id="XMLID_17112_" style="fill:#CDE0DF;stroke:#640917;stroke-width:2.5;stroke-miterlimit:10;" d="M337.439,467.361"/>
			
				<polygon id="XMLID_17111_" style="fill:#AF6C5A;stroke:#640917;stroke-width:2.5;stroke-linecap:round;stroke-miterlimit:10;" points="
				319.609,510.606 233.989,496.636 235.754,487.467 321.375,501.437 			"/>
			<path id="XMLID_17110_" style="fill:#CDE0DF;stroke:#640917;stroke-width:2.5;stroke-miterlimit:10;" d="M292.75,507.868
				l13.122,2.14c2.721,0.444,5.288-1.401,5.734-4.122l0.725-4.426c0.447-2.724-1.401-5.294-4.126-5.739l-13.122-2.14
				c-2.722-0.444-5.288,1.401-5.734,4.122l-0.726,4.425C288.177,504.854,290.025,507.424,292.75,507.868z"/>
			
				<line id="XMLID_17109_" style="fill:#C68671;stroke:#640917;stroke-width:2.5;stroke-linecap:round;stroke-miterlimit:10;" x1="319.47" y1="512.773" x2="320.83" y2="504.752"/>
			<path id="XMLID_17108_" style="fill:#ABC9C7;stroke:#640917;stroke-width:2.5;stroke-miterlimit:10;" d="M278.245,532.729"/>
			<path id="XMLID_17107_" style="fill:#ABC9C7;stroke:#640917;stroke-width:2.5;stroke-miterlimit:10;" d="M272.757,503.466
				c-0.224-1.257-0.215-0.728,1.045-0.523l1.828,0.298l11.893,2.446l8.102,1.96l9.67,1.829l4.704-0.131l8.755,0.915
				c0.908,0.148,2.02-2.636,2.004-1.716l-0.038,2.317c-0.014,0.869,0.577,1.631,1.423,1.833l33.099,7.886
				c3.866,0.776,44.569,4.047,52.455,13.237c9.419,10.977,2.457,28.495,1.846,33.313c-0.007,0.056-0.016,0.105-0.03,0.16
				l-27.199,111.457c-0.2,0.82-0.929,1.401-1.772,1.413l-34.295,0.509c-1.22,0.018-2.124-1.127-1.823-2.309l29.834-117.252
				c0.26-1.023-0.386-2.056-1.419-2.271l-93.179-19.315c-0.873-0.181-1.493-0.958-1.476-1.849"/>
		</g>
		<path id="XMLID_17105_" style="fill:#E25959;stroke:#640917;stroke-width:2.5;stroke-miterlimit:10;" d="M241.836,800.866h69.566
			c4.332,0,7.845-3.512,7.845-7.845l0,0c0-3.534-2.362-6.631-5.77-7.565l-35.481-9.73h-41.251v20.047
			C236.744,798.586,239.024,800.866,241.836,800.866z"/>
		<polygon id="XMLID_17104_" style="fill:#CC4242;" points="237.744,783.575 302.617,783.575 276.16,775.727 237.744,775.727 		"/>
		<path id="XMLID_17103_" style="fill:#FFFFFF;stroke:#640917;stroke-width:2.5;stroke-linecap:round;stroke-miterlimit:10;" d="
			M239.52,800.866h76.951c1.533,0,2.776-1.243,2.776-2.776v-3.755h-82.503v3.755C236.744,799.623,237.987,800.866,239.52,800.866z"
			/>
		
			<line id="XMLID_17102_" style="fill:#FFFFFF;stroke:#640917;stroke-width:2.5;stroke-linecap:round;stroke-miterlimit:10;" x1="290.32" y1="779.344" x2="289.048" y2="783.575"/>
		
			<line id="XMLID_17101_" style="fill:#FFFFFF;stroke:#640917;stroke-width:2.5;stroke-linecap:round;stroke-miterlimit:10;" x1="286.829" y1="778.466" x2="285.558" y2="782.697"/>
		
			<line id="XMLID_17100_" style="fill:#FFFFFF;stroke:#640917;stroke-width:2.5;stroke-linecap:round;stroke-miterlimit:10;" x1="283.339" y1="777.588" x2="282.067" y2="781.82"/>
	</g>
	<path style="opacity:0.22;fill:#640917;stroke:#640917;stroke-width:2.5;stroke-linecap:round;stroke-miterlimit:10;" d="
		M690.238,455.366l1.729-10.38l-41.489-6.9c0.939,0.06,1.89,0.16,2.85,0.32l-8.64-1.44c-14.56-2.41-28.32,7.43-30.74,21.98
		l-0.03,0.16c0,0.01,0,0.01,0,0.02l-1.23,7.38l-1.8,10.87l0.45,0.53c-3.07,0.56-5.61,2.98-6.15,6.24c-0.69,4.14,2.11,8.06,6.26,8.75
		c0.26,0.04,0.519,0.06,0.78,0.08c-0.02,0.46-0.04,0.93-0.05,1.39v0.17c0,0.45,0,0.9,0.02,1.35c0.019,0.44,0.05,0.88,0.08,1.32
		c0.01,0.06,0.01,0.12,0.01,0.18c0.49,5.63,2.55,10.9,5.78,15.32l-1.87-0.6l-0.05-0.01l-0.18,1.09l-0.3,1.83h51.92
		c2.12-3.01,3.61-6.54,4.25-10.41l0.021-0.17l4.489-26.98l0.45-2.7l0.141-0.87l0.029-0.16c0.021-0.16,0.03-0.31,0.05-0.47
		c7.591-0.63,14.07-6.31,15.381-14.16l0.54-3.28L690.238,455.366z"/>
	<path style="opacity:0.28;fill:#640917;" d="M574.119,547.006c-0.02,0-0.05-0.01-0.08-0.01l0.13-0.8c0.01,0,0.01,0,0.02,0
		L574.119,547.006z M583.579,610.396l-0.71-1.22l-0.2,1.22h-75.61l6.47-39.68l-36.7,9.28l-15.77,30.4h-23.7l21.11-40.68
		c2.57-4.95,7.14-8.57,12.55-9.94l49.69-12.57c4.34-4.68,10.87-7.16,17.65-6.06l4.38,0.72l0.79-4.83c0.17-1.07,1.17-1.79,2.24-1.62
		l1.29-7.94l0.19-1.13l0.05,0.02v-0.01l1.94,0.63c-2.59-3.54-4.45-7.61-5.38-11.97h61.7l-0.56,3.39l-0.03,0.18
		c-2.34,14.1-15.45,23.72-29.52,21.84c0.05,0.01,0.09,0.03,0.14,0.04c-0.14-0.02-0.28-0.05-0.41-0.07l-0.09,0.55l2.32,0.38
		c0.44,0.08,0.77,0.46,0.77,0.91l-0.04,6.07c7.87,3.53,12.7,12.02,11.25,20.93l-1.2,7.34l19.74,33.82H583.579z"/>
	<polygon style="fill:#CE8F7E;stroke:#640917;stroke-width:2.5;stroke-linecap:round;stroke-miterlimit:10;" points="900.25,464.75 
		790.39,464.75 790.39,559.45 683.49,559.45 683.49,655.01 662.52,655.01 662.52,655.01 579.08,655.01 579.08,750.38 472.18,750.38 
		472.18,845.07 368.81,845.07 368.81,845.75 368.82,900 323.29,900 323.29,845.07 323.29,845.07 323.29,801.03 428.13,801.03 
		428.13,705.66 534.55,705.66 534.55,610.96 534.61,610.96 534.61,610.1 639.45,610.1 639.45,514.72 683.49,514.72 683.49,514.73 
		745.87,514.73 745.87,420.03 751.35,420.03 751.35,419.43 856.19,419.43 856.19,324.06 900.24,324.06 900.24,368.78 	"/>
	<path id="XMLID_17099_" style="fill:#E25959;stroke:#640917;stroke-width:2.5;stroke-miterlimit:10;" d="M348.086,705.116h69.566
		c4.332,0,7.845-3.512,7.845-7.845l0,0c0-3.534-2.362-6.631-5.77-7.565l-35.481-9.73h-41.251v20.047
		C342.994,702.836,345.274,705.116,348.086,705.116z"/>
	<polygon id="XMLID_17098_" style="fill:#CC4242;" points="343.994,688.825 414,688.825 385.5,680.977 343.994,680.977 	"/>
	<path id="XMLID_17097_" style="fill:#FFFFFF;stroke:#640917;stroke-width:2.5;stroke-linecap:round;stroke-miterlimit:10;" d="
		M345.897,705.243l76.824-0.127c1.533,0,2.776-1.243,2.776-2.776v-3.755l-82.376,0.127v3.755
		C343.121,704,344.364,705.243,345.897,705.243z"/>
	
		<line id="XMLID_17096_" style="fill:#FFFFFF;stroke:#640917;stroke-width:2.5;stroke-linecap:round;stroke-miterlimit:10;" x1="396.57" y1="683.594" x2="395.298" y2="687.825"/>
	
		<line id="XMLID_17095_" style="fill:#FFFFFF;stroke:#640917;stroke-width:2.5;stroke-linecap:round;stroke-miterlimit:10;" x1="393.079" y1="682.716" x2="391.808" y2="686.947"/>
	
		<line id="XMLID_17094_" style="fill:#FFFFFF;stroke:#640917;stroke-width:2.5;stroke-linecap:round;stroke-miterlimit:10;" x1="389.589" y1="681.838" x2="388.317" y2="686.07"/>
	
		<line style="fill:#B57B64;stroke:#640917;stroke-width:2.5;stroke-linecap:round;stroke-miterlimit:10;" x1="57" y1="494" x2="184" y2="567"/>
	<path id="XMLID_17093_" style="fill:#630B18;" d="M130.334,533.511c-1.915,3.262-6.111,4.355-9.374,2.44
		c-3.262-1.915-4.355-6.111-2.44-9.374c1.915-3.262,6.111-4.355,9.374-2.44S132.249,530.249,130.334,533.511z"/>
</g>
</svg>
